<svg id="SvgjsSvg1148" width="441.25" height="835" xmlns="http://www.w3.org/2000/svg" version="1.1" xmlns:xlink="http://www.w3.org/1999/xlink" xmlns:svgjs="http://svgjs.com/svgjs"><defs id="SvgjsDefs1149"><marker id="SvgjsMarker1168" markerWidth="12" markerHeight="8" refX="9" refY="4" viewBox="0 0 12 8" orient="auto" markerUnits="userSpaceOnUse" stroke-dasharray="0,0"><path id="SvgjsPath1169" d="M0,0 L12,4 L0,8 L0,0" fill="#323232" stroke="#323232" stroke-width="1"></path></marker><marker id="SvgjsMarker1204" markerWidth="14" markerHeight="10" refX="10" refY="5" viewBox="0 0 14 10" orient="auto" markerUnits="userSpaceOnUse" stroke-dasharray="0,0"><path id="SvgjsPath1205" d="M0,0 L14,5 L0,10 L0,0" fill="#323232" stroke="#323232" stroke-width="1"></path></marker><marker id="SvgjsMarker1248" markerWidth="14" markerHeight="10" refX="10" refY="5" viewBox="0 0 14 10" orient="auto" markerUnits="userSpaceOnUse" stroke-dasharray="0,0"><path id="SvgjsPath1249" d="M0,0 L14,5 L0,10 L0,0" fill="#323232" stroke="#323232" stroke-width="1"></path></marker><marker id="SvgjsMarker1252" markerWidth="14" markerHeight="10" refX="10" refY="5" viewBox="0 0 14 10" orient="auto" markerUnits="userSpaceOnUse" stroke-dasharray="0,0"><path id="SvgjsPath1253" d="M0,0 L14,5 L0,10 L0,0" fill="#323232" stroke="#323232" stroke-width="1"></path></marker><marker id="SvgjsMarker1256" markerWidth="14" markerHeight="10" refX="10" refY="5" viewBox="0 0 14 10" orient="auto" markerUnits="userSpaceOnUse" stroke-dasharray="0,0"><path id="SvgjsPath1257" d="M0,0 L14,5 L0,10 L0,0" fill="#323232" stroke="#323232" stroke-width="1"></path></marker><marker id="SvgjsMarker1260" markerWidth="14" markerHeight="10" refX="10" refY="5" viewBox="0 0 14 10" orient="auto" markerUnits="userSpaceOnUse" stroke-dasharray="0,0"><path id="SvgjsPath1261" d="M0,0 L14,5 L0,10 L0,0" fill="#323232" stroke="#323232" stroke-width="1"></path></marker><marker id="SvgjsMarker1264" markerWidth="14" markerHeight="10" refX="10" refY="5" viewBox="0 0 14 10" orient="auto" markerUnits="userSpaceOnUse" stroke-dasharray="0,0"><path id="SvgjsPath1265" d="M0,0 L14,5 L0,10 L0,0" fill="#323232" stroke="#323232" stroke-width="1"></path></marker><marker id="SvgjsMarker1268" markerWidth="14" markerHeight="10" refX="10" refY="5" viewBox="0 0 14 10" orient="auto" markerUnits="userSpaceOnUse" stroke-dasharray="0,0"><path id="SvgjsPath1269" d="M0,0 L14,5 L0,10 L0,0" fill="#323232" stroke="#323232" stroke-width="1"></path></marker><marker id="SvgjsMarker1272" markerWidth="14" markerHeight="10" refX="10" refY="5" viewBox="0 0 14 10" orient="auto" markerUnits="userSpaceOnUse" stroke-dasharray="0,0"><path id="SvgjsPath1273" d="M0,0 L14,5 L0,10 L0,0" fill="#323232" stroke="#323232" stroke-width="1"></path></marker><marker id="SvgjsMarker1276" markerWidth="14" markerHeight="10" refX="10" refY="5" viewBox="0 0 14 10" orient="auto" markerUnits="userSpaceOnUse" stroke-dasharray="0,0"><path id="SvgjsPath1277" d="M0,0 L14,5 L0,10 L0,0" fill="#323232" stroke="#323232" stroke-width="1"></path></marker><marker id="SvgjsMarker1284" markerWidth="14" markerHeight="10" refX="10" refY="5" viewBox="0 0 14 10" orient="auto" markerUnits="userSpaceOnUse" stroke-dasharray="0,0"><path id="SvgjsPath1285" d="M0,0 L14,5 L0,10 L0,0" fill="#323232" stroke="#323232" stroke-width="1"></path></marker><marker id="SvgjsMarker1288" markerWidth="14" markerHeight="10" refX="10" refY="5" viewBox="0 0 14 10" orient="auto" markerUnits="userSpaceOnUse" stroke-dasharray="0,0"><path id="SvgjsPath1289" d="M0,0 L14,5 L0,10 L0,0" fill="#323232" stroke="#323232" stroke-width="1"></path></marker></defs><g id="SvgjsG1150" transform="translate(142.75,25)"><path id="SvgjsPath1151" d="M 13.333333333333334 0L 75.66666666666667 0C 93.44444444444444 0 93.44444444444444 40 75.66666666666667 40L 13.333333333333334 40C -4.444444444444445 40 -4.444444444444445 0 13.333333333333334 0Z" stroke="none" fill-opacity="1" fill="#fda98d"></path><g id="SvgjsG1152"><text id="SvgjsText1153" font-family="微软雅黑" text-anchor="middle" font-size="13px" width="69px" fill="#ffffff" font-weight="400" align="middle" lineHeight="125%" anchor="middle" family="微软雅黑" size="13px" weight="400" font-style="" opacity="1" y="0.875" transform="rotate(0)"><tspan id="SvgjsTspan1154" dy="16" x="44.5"><tspan id="SvgjsTspan1155" style="text-decoration:;">Request </tspan></tspan><tspan id="SvgjsTspan1156" dy="16" x="44.5"><tspan id="SvgjsTspan1157" style="text-decoration:;">Interface</tspan></tspan></text></g></g><g id="SvgjsG1158" transform="translate(119.25,103.5)"><path id="SvgjsPath1159" d="M 0 0L 136 0L 136 57L 0 57Z" stroke="none" fill-opacity="1" fill="#4c85d9"></path><g id="SvgjsG1160"><text id="SvgjsText1161" font-family="微软雅黑" text-anchor="middle" font-size="13px" width="116px" fill="#ffffff" font-weight="400" align="middle" lineHeight="125%" anchor="middle" family="微软雅黑" size="13px" weight="400" font-style="" opacity="1" y="9.375" transform="rotate(0)"><tspan id="SvgjsTspan1162" dy="16" x="68"><tspan id="SvgjsTspan1163" style="text-decoration:;">Use post method </tspan></tspan><tspan id="SvgjsTspan1164" dy="16" x="68"><tspan id="SvgjsTspan1165" style="text-decoration:;">to request address</tspan></tspan></text></g></g><g id="SvgjsG1166"><path id="SvgjsPath1167" d="M187.25 65L187.25 84.25L187.25 84.25L187.25 102.2" stroke="#323232" stroke-width="1" fill="none" marker-end="url(#SvgjsMarker1168)"></path></g><g id="SvgjsG1170" transform="translate(121.25,286.5)"><path id="SvgjsPath1171" d="M 0 34.75L 66 0L 132 34.75L 66 69.5L 0 34.75Z" stroke="none" fill-opacity="1" fill="#8ba7e1"></path><g id="SvgjsG1172"><text id="SvgjsText1173" font-family="微软雅黑" text-anchor="middle" font-size="13px" width="112px" fill="#ffffff" font-weight="400" align="middle" lineHeight="125%" anchor="middle" family="微软雅黑" size="13px" weight="400" font-style="" opacity="1" y="15.625" transform="rotate(0)"><tspan id="SvgjsTspan1174" dy="16" x="66"><tspan id="SvgjsTspan1175" style="text-decoration:;">Request </tspan></tspan><tspan id="SvgjsTspan1176" dy="16" x="66"><tspan id="SvgjsTspan1177" style="text-decoration:;">successfully </tspan></tspan></text></g></g><g id="SvgjsG1178" transform="translate(142.75,407.66666666666663)"><path id="SvgjsPath1179" d="M 0 0L 89 0L 89 40L 0 40Z" stroke="none" fill-opacity="1" fill="#4c85d9"></path><g id="SvgjsG1180"><text id="SvgjsText1181" font-family="微软雅黑" text-anchor="middle" font-size="13px" width="69px" fill="#ffffff" font-weight="400" align="middle" lineHeight="125%" anchor="middle" family="微软雅黑" size="13px" weight="400" font-style="" opacity="1" y="0.875" transform="rotate(0)"><tspan id="SvgjsTspan1182" dy="16" x="44.5"><tspan id="SvgjsTspan1183" style="text-decoration:;">Return </tspan></tspan><tspan id="SvgjsTspan1184" dy="16" x="44.5"><tspan id="SvgjsTspan1185" style="text-decoration:;">Data</tspan></tspan></text></g></g><g id="SvgjsG1186" transform="translate(144.25,771.9999999999999)"><path id="SvgjsPath1187" d="M 12.666666666666705 0L 85.3333333333333 0C 102.22222222222223 0 102.22222222222223 38.000000000000114 85.3333333333333 38.000000000000114L 12.666666666666705 38.000000000000114C -4.222222222222235 38.000000000000114 -4.222222222222235 0 12.666666666666705 0Z" stroke="none" fill-opacity="1" fill="#fda98d"></path><g id="SvgjsG1188"><text id="SvgjsText1189" font-family="微软雅黑" text-anchor="middle" font-size="13px" width="78px" fill="#ffffff" font-weight="400" align="middle" lineHeight="125%" anchor="middle" family="微软雅黑" size="13px" weight="400" font-style="" opacity="1" y="7.875000000000057" transform="rotate(0)"><tspan id="SvgjsTspan1190" dy="16" x="49"><tspan id="SvgjsTspan1191" style="text-decoration:;">Successfully</tspan></tspan></text></g></g><g id="SvgjsG1192" transform="translate(119.25,191)"><path id="SvgjsPath1193" d="M 0 0L 136 0L 136 65L 0 65Z" stroke="none" fill-opacity="1" fill="#4c85d9"></path><g id="SvgjsG1194"><text id="SvgjsText1195" font-family="微软雅黑" text-anchor="middle" font-size="13px" width="116px" fill="#ffffff" font-weight="400" align="middle" lineHeight="125%" anchor="middle" family="微软雅黑" size="13px" weight="400" font-style="" opacity="1" y="5.375" transform="rotate(0)"><tspan id="SvgjsTspan1196" dy="16" x="68"><tspan id="SvgjsTspan1197" style="text-decoration:;">Pass the request </tspan></tspan><tspan id="SvgjsTspan1198" dy="16" x="68"><tspan id="SvgjsTspan1199" style="text-decoration:;">body as a </tspan></tspan><tspan id="SvgjsTspan1200" dy="16" x="68"><tspan id="SvgjsTspan1201" style="text-decoration:;">parameter</tspan></tspan></text></g></g><g id="SvgjsG1202"><path id="SvgjsPath1203" d="M253.25 321.25L285.25 321.25L285.25 124.02917505030183L257.85 124.02917505030183" stroke="#323232" stroke-width="2" fill="none" marker-end="url(#SvgjsMarker1204)"></path><rect id="SvgjsRect1206" width="20" height="16" x="275.25" y="216.9395875251509" fill="#ffffff"></rect><text id="SvgjsText1207" font-family="微软雅黑" text-anchor="middle" font-size="13px" width="20px" fill="#323232" font-weight="400" align="top" lineHeight="16px" anchor="middle" family="微软雅黑" size="13px" weight="400" font-style="" opacity="1" y="214.3145875251509" transform="rotate(0)"><tspan id="SvgjsTspan1208" dy="16" x="285.25"><tspan id="SvgjsTspan1209" style="text-decoration:;">NO</tspan></tspan></text></g><g id="SvgjsG1210" transform="translate(36.25,632)"><path id="SvgjsPath1211" d="M 0 0L 89 0L 89 40L 0 40Z" stroke="none" fill-opacity="1" fill="#4c85d9"></path><g id="SvgjsG1212"><text id="SvgjsText1213" font-family="微软雅黑" text-anchor="middle" font-size="13px" width="69px" fill="#ffffff" font-weight="400" align="middle" lineHeight="125%" anchor="middle" family="微软雅黑" size="13px" weight="400" font-style="" opacity="1" y="0.875" transform="rotate(0)"><tspan id="SvgjsTspan1214" dy="16" x="44.5"><tspan id="SvgjsTspan1215" style="text-decoration:;">Send  </tspan></tspan><tspan id="SvgjsTspan1216" dy="16" x="44.5"><tspan id="SvgjsTspan1217" style="text-decoration:;">email</tspan></tspan></text></g></g><g id="SvgjsG1218" transform="translate(327.25,632)"><path id="SvgjsPath1219" d="M 0 0L 89 0L 89 40L 0 40Z" stroke="none" fill-opacity="1" fill="#4c85d9"></path><g id="SvgjsG1220"><text id="SvgjsText1221" font-family="微软雅黑" text-anchor="middle" font-size="13px" width="69px" fill="#ffffff" font-weight="400" align="middle" lineHeight="125%" anchor="middle" family="微软雅黑" size="13px" weight="400" font-style="" opacity="1" y="0.875" transform="rotate(0)"><tspan id="SvgjsTspan1222" dy="16" x="44.5"><tspan id="SvgjsTspan1223" style="text-decoration:;">Send </tspan></tspan><tspan id="SvgjsTspan1224" dy="16" x="44.5"><tspan id="SvgjsTspan1225" style="text-decoration:;">meaasge</tspan></tspan></text></g></g><g id="SvgjsG1226" transform="translate(25,514)"><path id="SvgjsPath1227" d="M 0 0L 111.5 0L 111.5 57L 0 57Z" stroke="none" fill-opacity="1" fill="#4c85d9"></path><g id="SvgjsG1228"><text id="SvgjsText1229" font-family="微软雅黑" text-anchor="middle" font-size="13px" width="92px" fill="#ffffff" font-weight="400" align="middle" lineHeight="125%" anchor="middle" family="微软雅黑" size="13px" weight="400" font-style="" opacity="1" y="1.375" transform="rotate(0)"><tspan id="SvgjsTspan1230" dy="16" x="56"><tspan id="SvgjsTspan1231" style="text-decoration:;">Put useful data </tspan></tspan><tspan id="SvgjsTspan1232" dy="16" x="56"><tspan id="SvgjsTspan1233" style="text-decoration:;">into an excel </tspan></tspan><tspan id="SvgjsTspan1234" dy="16" x="56"><tspan id="SvgjsTspan1235" style="text-decoration:;">file</tspan></tspan></text></g></g><g id="SvgjsG1236" transform="translate(231.75,513.75)"><path id="SvgjsPath1237" d="M 0 0L 119 0L 119 57.5L 0 57.5Z" stroke="none" fill-opacity="1" fill="#4c85d9"></path><g id="SvgjsG1238"><text id="SvgjsText1239" font-family="微软雅黑" text-anchor="middle" font-size="13px" width="99px" fill="#ffffff" font-weight="400" align="middle" lineHeight="125%" anchor="middle" family="微软雅黑" size="13px" weight="400" font-style="" opacity="1" y="1.625" transform="rotate(0)"><tspan id="SvgjsTspan1240" dy="16" x="59.5"><tspan id="SvgjsTspan1241" style="text-decoration:;">Put useful data </tspan></tspan><tspan id="SvgjsTspan1242" dy="16" x="59.5"><tspan id="SvgjsTspan1243" style="text-decoration:;">into content </tspan></tspan><tspan id="SvgjsTspan1244" dy="16" x="59.5"><tspan id="SvgjsTspan1245" style="text-decoration:;">area</tspan></tspan></text></g></g><g id="SvgjsG1246"><path id="SvgjsPath1247" d="M187.25 447.66666666666663L187.25 480.8333333333333L80.75 480.8333333333333L80.75 511.4" stroke="#323232" stroke-width="2" fill="none" marker-end="url(#SvgjsMarker1248)"></path></g><g id="SvgjsG1250"><path id="SvgjsPath1251" d="M187.25 447.66666666666663L187.25 480.7083333333333L291.25 480.7083333333333L291.25 511.15" stroke="#323232" stroke-width="2" fill="none" marker-end="url(#SvgjsMarker1252)"></path></g><g id="SvgjsG1254"><path id="SvgjsPath1255" d="M80.75 571L80.75 601.5L80.75 601.5L80.75 629.4" stroke="#323232" stroke-width="2" fill="none" marker-end="url(#SvgjsMarker1256)"></path></g><g id="SvgjsG1258"><path id="SvgjsPath1259" d="M291.25 571.25L291.25 601.625L80.75 601.625L80.75 629.4" stroke="#323232" stroke-width="2" fill="none" marker-end="url(#SvgjsMarker1260)"></path></g><g id="SvgjsG1262"><path id="SvgjsPath1263" d="M350.75 542.5L371.75 542.5L371.75 629.4" stroke="#323232" stroke-width="2" fill="none" marker-end="url(#SvgjsMarker1264)"></path></g><g id="SvgjsG1266"><path id="SvgjsPath1267" d="M187.25 160.5L187.25 175.75L187.25 175.75L187.25 188.4" stroke="#323232" stroke-width="2" fill="none" marker-end="url(#SvgjsMarker1268)"></path></g><g id="SvgjsG1270"><path id="SvgjsPath1271" d="M187.25 256L187.25 271.25L187.25 271.25L187.25 283.9" stroke="#323232" stroke-width="2" fill="none" marker-end="url(#SvgjsMarker1272)"></path></g><g id="SvgjsG1274"><path id="SvgjsPath1275" d="M187.25 356L187.25 381.8333333333333L187.25 381.8333333333333L187.25 405.0666666666666" stroke="#323232" stroke-width="2" fill="none" marker-end="url(#SvgjsMarker1276)"></path><rect id="SvgjsRect1278" width="25" height="16" x="174.75" y="372.5333333333333" fill="#ffffff"></rect><text id="SvgjsText1279" font-family="微软雅黑" text-anchor="middle" font-size="13px" width="25px" fill="#323232" font-weight="400" align="top" lineHeight="16px" anchor="middle" family="微软雅黑" size="13px" weight="400" font-style="" opacity="1" y="369.9083333333333" transform="rotate(0)"><tspan id="SvgjsTspan1280" dy="16" x="187.25"><tspan id="SvgjsTspan1281" style="text-decoration:;">YES</tspan></tspan></text></g><g id="SvgjsG1282"><path id="SvgjsPath1283" d="M80.75 672L80.75 722L193.25 722L193.25 769.3999999999999" stroke="#323232" stroke-width="2" fill="none" marker-end="url(#SvgjsMarker1284)"></path></g><g id="SvgjsG1286"><path id="SvgjsPath1287" d="M371.75 672L371.75 722L193.25 722L193.25 769.3999999999999" stroke="#323232" stroke-width="2" fill="none" marker-end="url(#SvgjsMarker1288)"></path></g></svg>